<svg xmlns="http://www.w3.org/2000/svg" viewBox="0 0 64 64" width="64" height="64">
	<rect fill="#fff" x="9.6" y="14.2" class="st0" width="44.8" height="39.2"/>
	<path d="M23.6 3v5.6h16.8V3H46v5.6h11.2c1.5 0 2.8 1.3 2.8 2.8v44.8c0 1.5-1.3 2.8-2.8 2.8H6.8C5.3 59 4 57.7 4 56.2V11.4c0-1.5 1.3-2.8 2.8-2.8H18V3h5.6zm30.8 25.2H9.6v25.2h44.8V28.2zM18 14.2H9.6v8.4h44.8v-8.4H46V17h-5.6v-2.8H23.6V17H18v-2.8z" fill="#888"/>
	<path fill="#f43737" d="M40.5 31.4l4 3.9-13.9 13.9-9.9-9.9 4-4 5.9 6 9.9-9.9z"/>
</svg>