<svg xmlns="http://www.w3.org/2000/svg" viewBox="0 0 64 64" width="64" height="64">
  <path fill="#fff" d="M9.3 9.3h34v45.3h-34zM49 46.2h5.7v8.5H49z"/>
  <path fill="#666" d="M51.8 60.3H12.2c-4.7 0-8.5-3.8-8.5-8.5V6.5c0-1.6 1.3-2.8 2.8-2.8h39.7C47.8 3.7 49 5 49 6.5v34h11.3v11.3c0 4.7-3.8 8.5-8.5 8.5zM49 46.2v5.7c0 1.6 1.3 2.8 2.8 2.8 1.6 0 2.8-1.3 2.8-2.8v-5.7H49zm-5.7 8.5V9.3h-34v42.5c0 1.6 1.3 2.8 2.8 2.8h31.2zM15 17.8h22.7v5.7H15v-5.7zm0 11.4h22.7v5.7H15v-5.7z" />
  <path fill="#888" d="M15 17.8h22.7v5.7H15zM15 29.2h22.7v5.7H15z"/>
  <path fill="#f43737" d="M35.7 43.9l.8-.4s.7-.4 1-.5c.4-.2.7-.4 1-.5.8-.4 1.4-.6 2-.6.5 0 .9.4.9.9v.9c0 .4-.3.8-.8.8-.4 0-.9.3-1.6.6-.2.1-.3.2-.5.3-.1.1-.7.4-.9.5-.3.2-.5.3-.7.4-.5.3-.8.4-1.1.5-.7.3-1.3.4-2 .4-.9 0-1.6-.3-2.1-.9-.4-.5-.3-1.2.1-2.4 0-.1.1-.3.2-.4v-.1c-1.7 1.6-4.5 4.3-6.3 6.1-.2.3-.6.4-.9.4-1 0-1.5-1-1.2-1.8l2.2-6c.1-.2-.2-.4-.3-.3L23.8 43c-.4.3-.9.1-1.2-.3l-.5-.7c-.2-.4-.1-.9.2-1.2l1.6-1.1c2.4-1.6 5.2.8 4.2 3.4l-.1.4c3-2.9 5.1-4.7 5.8-4.7 1-.1 1.4.7 1.3 1.8 0 .3-.1.6-.1.9 0 .2-.1.5-.1.5 0 .3-.2.7-.4 1.3 0 .1-.1.2-.1.2-.3.7-.4.8-.4 1 .4 0 .8-.2 1.7-.6z" />
</svg>